<?xml version="1.0" encoding="UTF-8" standalone="no"?>
<svg width="640" xmlns="http://www.w3.org/2000/svg" height="480">
 <g fill-rule="evenodd">
  <g stroke-width=".036" stroke-miterlimit="10" stroke="#000">
   <path id="path7" d="m38.709 242.87c0 134.1 88.632 242.86 197.96 242.86 109.3 0 197.93-108.76 197.93-242.86s-88.632-242.86-197.93-242.86c-109.33 0-197.96 108.76-197.96 242.86z"/>
   <path id="path9" fill="#e8cdba" d="m42.921 243.31c0 131.87 87.12 238.82 194.58 238.82s194.58-106.96 194.58-238.82c0-131.9-87.12-238.86-194.58-238.86s-194.58 106.96-194.58 238.86z"/>
   <path id="path11" d="m56.097 199.42c-1.224-4.86-3.42-8.316-6.732-10.8s-7.776-3.816-12.996-3.852c-5.364-0.108-13.608-0.28801-18.756 3.348-5.256 3.6-9.396 9.936-12.276 18.036-3.024 7.992-5.616 19.8-5.292 29.592 0.288 9.756 2.304 21.132 7.452 28.151 5.076 6.912 16.992 11.341 23.112 12.744 5.94 1.116 9.54-1.979 12.744-5.544 3.168-3.6 5.076-8.892 6.012-15.876l6.732-55.799z"/>
  </g>
  <path id="path13" fill="#e8cdba" d="m50.085 259.33c-0.576-1.836-1.296-2.592-2.16-2.412-0.864 0.25198-1.908 1.404-3.132 3.6-1.44 2.124-2.988 6.408-5.04 8.676-2.124 2.089-3.708 3.889-6.984 3.853-3.384-0.17999-8.388-1.98-12.492-4.572-4.14-2.735-9.216-6.372-12.024-11.052-2.952-4.752-4.5-10.404-5.076-17.1-0.324-1.224-0.108-4.032 0.504-8.424 0.612-4.536 1.548-12.312 3.348-18.036 1.764-5.904 3.996-12.276 6.984-16.344 2.952-4.068 6.48-6.624 10.584-7.956 3.888-1.512 9.54-0.972 13.212-0.72 3.528 0.17999 6.192 0.828 8.424 1.944 2.124 1.08 3.78 2.52 4.824 4.32 1.044 1.62 0.684 4.644 1.44 5.76 0.684 1.044 1.512 1.332 2.628 0.71999 1.008-0.71999 2.088-1.98 3.384-4.32-2.808 20.663-5.616 41.363-8.424 62.063z"/>
  <g stroke-width=".036" stroke-miterlimit="10" stroke="#000">
   <path id="path15" d="m45.297 211.23c-0.504-1.512-3.132-4.104-5.544-5.292-2.556-1.332-6.192-2.772-9.396-1.944-3.348 0.79199-7.236 2.7-9.864 6.984-2.664 4.284-5.004 11.808-5.508 18.288-0.576 6.408 0.036 15.444 2.376 19.728 2.304 4.104 7.776 5.184 11.556 5.04 3.6-0.28799 9.072-4.464 10.584-6.264 1.368-1.872 0.108-4.788-1.692-4.572-1.836 0.18001-6.228 5.076-8.892 5.796-2.844 0.612-5.472-0.108-7.2-2.16-1.728-2.196-2.664-5.796-2.664-10.368-0.071999-4.68 0.828-12.636 2.412-17.064 1.476-4.464 4.32-7.992 6.732-9.612 2.376-1.764 5.22-1.332 7.704-0.504 2.376 0.828 5.076 4.86 6.732 5.292 1.512 0.216 3.096-1.872 2.664-3.348z"/>
   <path id="path17" d="m420.78 201.51c1.188-4.824 3.384-8.388 6.731-10.836 3.276-2.52 7.597-3.744 12.96-3.816 5.328-0.108 13.536-0.28799 18.792 3.348 5.185 3.6 9.217 9.936 12.24 18.036 2.916 7.992 5.508 19.8 5.292 29.592-0.396 9.756-2.412 21.132-7.452 28.152-5.184 6.911-17.136 11.34-23.075 12.743-6.049 1.116-9.648-1.979-12.744-5.544-3.204-3.6-5.112-8.892-6.013-15.876l-6.731-55.799z"/>
  </g>
  <path id="path19" fill="#e8cdba" d="m426.79 261.41c0.54001-1.836 1.26-2.592 2.16-2.412 0.75598 0.25198 1.8 1.404 3.132 3.6 1.404 2.124 2.952 6.408 5.04 8.677 2.052 2.088 3.601 3.888 6.984 3.852 3.275-0.18002 8.315-1.98 12.492-4.572 4.031-2.7 9.144-6.443 12.023-11.088 2.916-4.788 4.428-10.332 5.076-17.064 0.28799-1.224 0.071991-4.032-0.50403-8.424-0.72-4.536-1.656-12.312-3.349-18.036-1.8-5.904-4.031-12.276-6.983-16.344-3.061-4.068-6.588-6.624-10.584-7.956-4.068-1.512-9.648-0.972-13.248-0.72-3.636 0.17999-6.3 0.828-8.424 1.944-2.269 1.08-3.816 2.52-4.788 4.32-1.152 1.62-0.75601 4.644-1.44 5.76-0.75601 1.044-1.691 1.332-2.664 0.72-1.044-0.72-2.159-1.98-3.348-4.32 2.809 20.663 5.617 41.363 8.425 62.063z"/>
  <g stroke-width=".036" stroke-miterlimit="10" stroke="#000">
   <path id="path21" d="m431.58 213.32c0.43201-1.512 3.024-4.104 5.544-5.292 2.448-1.332 6.12-2.772 9.36-1.944 3.275 0.79199 7.164 2.7 9.863 6.984 2.521 4.284 4.969 11.808 5.545 18.288 0.46799 6.408-0.108 15.444-2.412 19.728-2.448 4.104-7.813 5.184-11.521 5.04-3.708-0.28801-9.18-4.464-10.584-6.264-1.404-1.872-0.25201-4.788 1.656-4.572 1.728 0.18001 6.192 5.076 8.928 5.796 2.7 0.53999 5.472-0.144 7.2-2.196 1.656-2.232 2.484-5.724 2.628-10.332-0.071991-4.68-0.86398-12.636-2.376-17.064-1.548-4.572-4.392-7.92-6.732-9.648-2.483-1.8-5.327-1.26-7.703-0.468-2.484 0.828-5.148 4.86-6.732 5.292-1.62 0.216-3.204-1.872-2.664-3.348z"/>
   <path id="path23" d="m142.71 204.79c0 6.624 5.976 12.024 13.32 12.024s13.32-5.4 13.32-12.024-5.976-12.024-13.32-12.024-13.32 5.4-13.32 12.024z"/>
   <path id="path25" fill="#fff" d="m149.44 202.59c0 2.016 1.62 3.636 3.6 3.636 2.016 0 3.636-1.62 3.636-3.636 0-1.98-1.62-3.6-3.636-3.6-1.98 0-3.6 1.62-3.6 3.6z"/>
   <path id="path27" d="m120.86 147.55c4.644-1.152 14.184-2.448 21.132-2.772 7.02-0.396 15.12-0.144 20.268 0.612 4.968 0.72 9.288 2.592 9.612 3.816 0.072006 1.188-3.816 3.024-8.352 3.276-4.608 0.108-12.384-2.448-18.612-2.412-6.408-0.071991-13.932 1.476-18.828 2.304-5.004 0.828-8.388 2.412-10.44 2.376-2.088-0.252-2.736-2.088-1.8-3.276 0.864-1.26 2.232-2.844 7.02-3.924z"/>
   <path id="path29" d="m328.58 205.04c0 6.516-5.976 11.772-13.32 11.772-7.38 0-13.319-5.256-13.319-11.772s5.939-11.772 13.319-11.772c7.344 0 13.32 5.256 13.32 11.772z"/>
   <path id="path31" fill="#fff" d="m317.96 202.84c0 2.016-1.62 3.636-3.6 3.636-2.016 0-3.636-1.62-3.636-3.636 0-1.98 1.62-3.636 3.636-3.636 1.98 0 3.6 1.656 3.6 3.636z"/>
   <path id="path33" d="m359.11 148.91c-4.356-1.548-12.636-3.816-19.008-4.716-6.444-1.08-13.896-1.548-18.612-1.26-4.68 0.252-9.036 1.692-9.324 2.916-0.43201 1.188 3.132 3.348 7.236 3.996 4.104 0.504 11.556-1.296 17.352-0.68401 5.688 0.504 12.492 2.772 16.92 4.032 4.429 1.26 7.236 3.168 9.252 3.348 1.872-0.036011 2.664-1.908 2.089-3.132-0.64902-1.404-1.837-2.952-5.905-4.5z"/>
   <path id="path35" d="m124.68 428.27c-3.42-2.735-10.98-11.447-15.732-17.243-4.932-5.94-11.268-14.761-12.636-17.568-1.26-2.808 1.944-2.16 5.04 0.828 3.024 2.952 8.136 11.124 12.816 16.74 4.464 5.399 12.708 13.176 14.472 16.092 1.692 2.844-0.648 3.78-3.96 1.151z"/>
   <path id="path37" d="m131.34 433.35c0.648 1.188 4.32 4.645 5.616 5.112 1.188 0.216 2.304-2.052 1.692-3.204-0.756-1.224-4.716-3.312-5.904-3.636-1.26-0.36002-2.196 0.53998-1.404 1.728z"/>
   <path id="path39" d="m89.901 383.78c0.324 1.26 2.988 5.76 4.104 6.407 1.08 0.54001 2.736-1.367 2.448-2.664-0.468-1.439-3.672-4.428-4.752-5.075-1.224-0.612-2.196-0.036011-1.8 1.332z"/>
   <path id="path41" d="m151.24 460.1c-4.212-2.735-6.444-6.479-6.552-11.231-0.10799-4.824 1.62-10.548 5.616-17.316-1.944-6.804-2.772-12.744-2.34-18.252 0.39601-5.508 1.908-10.296 4.68-14.508-0.936-4.212-0.936-7.849 0-10.765 0.936-3.06 2.808-5.256 5.616-7.02-1.764-5.904-2.34-10.728-1.872-15.012 0.46799-4.248 1.98-7.632 4.68-10.296-1.476-5.652-1.224-10.296 0.468-14.509 1.692-4.248 4.968-7.487 9.828-10.296 0.144-3.384 1.368-6.191 3.276-8.424 1.908-2.34 4.716-3.924 8.424-5.147 3.492-6.66 7.524-11.341 12.636-14.04 5.004-2.809 10.692-3.456 17.352-2.341 1.584-1.836 4.968-2.592 10.296-2.808 5.328-0.14398 12.456 0.43201 21.528 1.872 7.309-2.196 13.572-3.132 19.188-2.808 5.508 0.28799 10.188 1.8 14.04 4.68 7.128 0.57599 12.384 1.728 15.912 3.744 3.527 1.979 5.147 4.536 5.147 7.956 6.84 1.943 11.232 4.392 13.572 7.487 2.232 3.097 2.232 6.553 0 10.765 4.68 3.168 7.596 6.336 8.892 9.359 1.225 3.061 0.75702 5.977-1.403 8.893 3.023 3.672 5.004 7.74 6.084 12.204 1.008 4.428 1.008 9.216 0 14.508 2.987 4.464 4.752 8.784 5.147 13.104 0.396 4.356-0.53998 8.389-2.808 12.637 3.888 5.76 6.048 11.016 7.02 15.912 0.828 4.823 0.25201 9.144-1.872 13.104 3.24 3.996 4.969 7.488 5.616 10.764 0.54001 3.168-0.28799 5.977-2.34 8.425 2.484 4.535 3.24 9.611 2.809 15.911-0.54001 6.12-2.341 16.236-6.085 21.061-3.924 4.752-9.359 7.2-16.848 7.488 0.25201 3.456-0.89899 5.903-3.744 7.487-2.88 1.584-7.2 2.16-13.104 1.872-1.765 2.988-5.616 4.968-11.7 6.084-6.3 1.044-15.408 0.504-24.804 0.46899-9.504-0.071991-23.544 0.216-30.888-0.93698-7.38-1.224-11.412-3.456-12.636-6.552-4.752 2.16-8.82 3.096-12.204 2.808-3.528-0.324-6.192-1.836-8.388-4.68-7.308 0.828-12.888 0.828-16.884 0-4.104-0.93701-6.264-2.521-7.02-5.148-7.632-0.79199-12.996-1.908-16.38-3.744-3.42-1.836-4.572-4.176-3.744-7.02-4.68-2.016-7.2-5.004-7.956-9.36-0.647-4.356 0.46899-9.684 3.745-16.38z"/>
  </g>
  <path id="path43" d="m156.39 458.23c-5.004-1.943-7.524-4.968-7.956-9.359-0.43199-4.393 1.44-10.009 5.616-16.849-2.88-5.651-4.176-11.268-3.744-16.848 0.396-5.652 2.376-11.268 6.084-16.848-2.052-2.988-2.52-5.797-1.404-8.425 1.116-2.664 3.672-5.111 7.956-7.487-3.204-5.185-4.608-9.973-4.212-14.508 0.43199-4.572 2.52-8.748 6.552-12.673-2.592-4.607-3.06-8.567-1.404-12.168 1.62-3.672 5.364-6.695 11.232-9.359-0.64801-3.889-0.072006-6.912 1.872-9.36 1.908-2.484 4.932-4.104 9.36-5.147 2.952-6.66 6.804-11.341 11.7-14.04 4.896-2.809 10.584-3.456 17.352-2.341 1.584-1.836 4.968-2.592 10.296-2.808 5.328-0.14401 12.456 0.43198 21.528 1.872 6.552-1.656 12.132-2.232 17.315-1.872 5.148 0.35998 9.324 1.764 13.104 4.212 5.292-0.21597 9.216 0.612 12.168 2.34 2.844 1.656 4.607 4.356 5.147 7.956 6.84 1.944 11.232 4.393 13.572 7.488 2.231 3.096 2.231 6.552 0 10.764 4.68 3.168 7.596 6.336 8.892 9.36 1.225 3.06 0.75598 5.976-1.403 8.892 3.023 3.672 5.004 7.74 6.084 12.204 1.008 4.429 1.008 9.216 0 14.508 2.987 4.464 4.752 8.784 5.147 13.104 0.396 4.355-0.54001 8.388-2.808 12.636 3.888 5.76 6.048 11.017 7.02 15.912 0.82797 4.824 0.25198 9.144-1.872 13.104 3.24 3.995 4.969 7.487 5.616 10.764 0.54001 3.168-0.28799 5.976-2.34 8.424 2.268 4.68 3.204 9.937 2.808 15.912-0.43198 5.976-1.403 15.624-5.147 19.656-3.888 3.924-9.72 5.076-17.784 3.744 0.25201 3.455-0.89999 5.903-3.744 7.487-2.88 1.584-7.2 2.16-13.104 1.872 1.548 3.384-0.21701 5.725-5.148 7.021-5.147 1.224-15.408 0.504-24.804 0.46802-9.504-0.072021-23.544 0.21597-30.888-0.93701-7.38-1.224-11.412-3.456-12.636-6.552-4.788 2.16-8.712 3.096-12.204 2.809-3.492-0.324-6.3-1.836-8.424-4.681-7.38 0.828-12.816 0.828-16.848 0-3.996-0.936-6.336-2.52-7.02-5.147-7.632-0.79199-12.996-1.908-16.38-3.744-3.42-1.836-4.572-4.176-3.744-7.021-4.788-1.008-7.236-3.456-7.488-7.487-0.215-4.068 1.765-9.684 6.085-16.848z"/>
  <g stroke-width=".036" stroke-miterlimit="10" stroke="#000">
   <path id="path45" d="m189.15 344c4.392 14.328 9.18 25.92 14.508 35.604 5.22 9.54 10.08 16.668 17.352 21.528 7.38 4.752 17.604 7.236 26.208 7.02 8.567-0.323 18.107-2.592 24.336-8.892 5.976-6.408 8.388-19.836 11.699-29.052 3.24-9.288 5.94-17.928 7.956-26.208-13.752 4.067-28.764 6.048-45.863 6.084-17.136-0.036011-35.64-2.017-56.196-6.084z"/>
   <g fill="#fff">
    <path id="path47" d="m194.77 348.68c5.4 1.62 11.88 2.736 20.124 3.744 8.172 0.936 19.512 1.512 28.584 1.872 8.964 0.28799 17.604 0.79199 24.804 0 7.164-0.93701 12.96-2.521 17.784-5.148l-7.956 24.372c-7.596 2.88-15.048 4.752-22.933 5.616-7.884 0.86398-15.012 1.224-23.868-0.46802-8.928-1.836-18.72-5.22-29.52-10.296-2.339-6.552-4.679-13.104-7.019-19.692z"/>
    <path id="path49" d="m205.06 374.45c1.512 4.968 4.284 9.504 8.46 14.04 4.104 4.5 10.908 9.863 16.38 12.636 5.292 2.592 10.224 3.78 15.912 3.276 5.688-0.57602 13.067-2.017 18.252-6.553 5.112-4.716 9.072-11.592 12.168-21.06-4.716 3.132-10.8 5.112-18.252 6.084-7.632 0.97198-17.82 0.86398-26.676-0.46802-8.928-1.475-17.532-4.031-26.244-7.955z"/>
   </g>
   <path id="path51" d="m185.88 363.65c0.648 4.14 4.14 17.819 7.956 25.775 3.636 7.813 10.404 17.424 14.04 21.061 3.456 3.42 7.092 1.151 7.02 0-0.252-1.188-4.644-3.528-7.488-7.021-2.88-3.672-6.516-8.136-9.36-14.508-2.952-6.516-5.976-19.656-7.956-23.868-2.124-4.283-4.824-5.507-4.212-1.439z"/>
   <path id="path53" d="m220.54 411.89c-0.936-0.39603-3.456 2.017-3.276 2.809 0.252 0.75601 4.032 2.304 4.68 1.872 0.468-0.505-0.64801-4.429-1.404-4.681z"/>
   <path id="path55" d="m231.31 417.04c1.872 0.97202 6.876 1.548 11.7 1.872 4.788 0.107 11.7 0.72 16.849-0.93701 5.04-1.836 11.483-7.596 13.104-9.359 1.261-1.8-1.907-1.836-4.212-0.93701-2.34 0.93701-5.256 4.681-8.892 6.084-3.816 1.152-7.849 1.44-12.636 1.404-4.86-0.14502-12.745-2.196-15.444-1.872-2.665 0.32501-2.449 2.737-0.46899 3.745z"/>
   <path id="path57" d="m270.15 495.67c2.988-0.53998 7.812-0.10797 13.104-0.93698 5.185-1.008 13.717-2.735 18.252-4.212 4.465-1.62 7.093-4.607 8.425-4.68 1.224-0.036011 1.367 2.952-0.93698 4.68-2.376 1.729-7.668 3.924-13.104 5.616-5.652 1.62-14.473 3.384-19.656 3.744-5.184 0.17999-9.792-1.62-10.764-2.34-1.008-0.75497 1.656-1.475 4.68-1.871z"/>
   <path id="path59" d="m163.3 476.3c2.7 1.116 6.696 4.104 11.592 6.192 4.86 2.052 13.068 5.04 17.676 6.191 4.572 1.08 8.424-0.216 9.612 0.54001 0.90001 0.685-0.324 3.132-3.276 3.456-2.988 0.14499-8.604-0.647-14.076-2.231-5.544-1.729-14.22-4.824-18.648-7.345-4.536-2.664-7.344-6.588-7.848-7.739-0.54001-1.152 2.088-0.324 4.968 0.936z"/>
   <path id="path61" d="m209.49 489.47c-0.93599 0.071991-2.16 3.349-1.584 3.996 0.504 0.504 4.716 0.14499 5.004-0.504 0.18001-0.79199-2.628-3.528-3.42-3.492z"/>
   <path id="path63" d="m255.82 496.02c-0.93599 0.071991-2.16 3.349-1.584 3.996 0.504 0.504 4.716 0.14499 5.004-0.504 0.17999-0.79098-2.628-3.527-3.42-3.492z"/>
   <path id="path65" d="m315.84 481.81c-0.54001 0.612 0.86398 3.924 1.729 3.96 0.75598-0.071991 3.384-3.275 3.168-3.924-0.46802-0.72-4.321-0.68402-4.897-0.036011z"/>
   <path id="path67" d="m236.64 201.73c-2.628 8.1-9 15.732-19.116 23.04-10.26 7.344-26.496 17.136-41.76 20.628-15.516 3.312-35.784 1.8-49.536-0.504-13.716-2.52-24.192-9.072-31.716-13.68-7.524-4.536-9.144-7.884-12.78-13.392-3.672-5.76-6.768-13.716-8.892-20.124-2.16-6.48-3.744-12.312-4.356-18.036-3.42 2.268-6.912 3.168-10.476 2.844-3.708-0.396-7.812-3.6-11.196-5.148-3.42-1.728-6.408-3.132-9.108-4.644 0.035999 3.312-0.864 6.192-2.304 8.496-1.548 2.34-4.104 4.428-6.84 5.436-2.952 0.864-7.74 1.224-10.044 0.252-2.304-1.116-3.24-3.924-3.636-6.192-0.432-2.304 0.216-5.4 0.684-7.488 0.288-2.268 0.612-3.888 1.116-5.4 0.108-3.78 1.152-6.912 2.988-9.792 1.836-2.916 4.32-5.976 7.992-7.236 3.564-1.368 8.1-1.584 13.464-0.504 5.328 1.152 13.752 5.184 18.468 7.236 4.572 1.908 7.236 2.34 9.36 4.356 2.124 1.908 3.096 4.32 3.204 7.236 0.648-0.864 1.728-1.512 2.952-2.34 1.08-0.828 1.728-1.872 4.572-2.304 3.024-0.468 7.128-0.68401 12.996-0.504 31.032-0.036011 62.064-0.036011 94.5 0 32.472-0.036011 64.728-0.036011 98.568 0h94.5c5.832-0.18001 9.936 0.035995 12.996 0.504 2.736 0.43199 3.42 1.476 4.572 2.304 1.188 0.828 2.268 1.476 2.951 2.34 0.071991-2.916 1.045-5.328 3.204-7.236 2.017-2.016 4.717-2.448 9.36-4.356 4.608-2.052 13.032-6.084 18.468-7.236 5.292-1.08 9.828-0.864 13.464 0.504 3.564 1.26 6.049 4.32 7.992 7.236 1.8 2.88 2.844 6.012 2.988 9.792 0.46802 1.512 0.79202 3.132 1.116 5.4 0.35901 2.088 1.044 5.184 0.68402 7.488-0.46802 2.268-1.404 5.076-3.636 6.192-2.412 0.972-7.2 0.612-10.044-0.252-2.844-1.008-5.4-3.096-6.84-5.436-1.477-2.304-2.376-5.184-2.305-8.496-2.735 1.512-5.724 2.916-9.107 4.644-3.492 1.548-7.597 4.752-11.196 5.148-3.636 0.324-7.128-0.576-10.476-2.844-0.64801 5.724-2.232 11.556-4.356 18.036-2.231 6.408-5.292 14.364-8.892 20.124-3.744 5.508-5.364 8.856-12.78 13.392-7.632 4.608-18.072 11.16-31.716 13.68-13.824 2.304-34.128 3.816-49.536 0.504-15.3-3.492-31.68-13.284-41.76-20.628-10.151-7.308-16.307-14.94-18.755-23.04zm-143.86-12.348c0.468 3.384 2.088 6.804 4.86 10.404 2.736 3.528 5.328 7.416 11.664 10.98 6.3 3.456 16.128 7.92 25.74 9.9 9.504 1.8 20.448 3.096 30.888 1.368 10.332-1.908 21.96-6.264 30.6-11.808 8.568-5.544 15.192-12.492 20.412-21.132-41.364 0.072006-82.764 0.18001-124.16 0.28801zm287.46 0c-0.504 3.384-2.124 6.804-4.86 10.404-2.844 3.528-5.436 7.416-11.664 10.98-6.371 3.456-16.199 7.92-25.739 9.9-9.54 1.8-20.521 3.096-30.853 1.368-10.439-1.908-21.996-6.264-30.636-11.808-8.604-5.544-15.264-12.492-20.412-21.132 41.364 0.072006 82.764 0.18001 124.16 0.28801z"/>
   <g fill="#886349">
    <path id="path69" d="m55.989 159.79c-2.736-1.584-5.616-2.88-8.64-4.032-3.168-1.332-6.552-2.628-9.612-2.916-3.204-0.396-6.444 0.504-8.748 1.332-2.376 0.828-3.24 1.656-4.824 3.888-1.62 2.268-3.42 5.688-4.428 9.144-1.08 3.204-1.836 7.632-1.836 10.368-0.144 2.628-0.18 4.32 1.404 5.364 1.476 0.972 5.544 1.188 7.884 0.504 2.376-0.864 4.428-2.808 6.012-5.256 1.476-2.448 2.448-5.58 2.916-9.396 4.752 2.34 9.144 4.284 13.176 5.976 4.032 1.656 7.848 3.744 10.908 3.924 2.916 0.071991 5.544-1.26 6.912-3.168 1.296-1.98 1.728-6.228 0.756-8.424-1.224-2.304-5.472-3.96-7.452-5.112-1.98-1.188-3.456-2.016-4.428-2.196z"/>
    <path id="path71" d="m417.72 159.79c2.7-1.584 5.58-2.88 8.641-4.032 3.06-1.332 6.443-2.628 9.611-2.916 3.097-0.396 6.337 0.504 8.749 1.332 2.231 0.828 3.203 1.656 4.859 3.888 1.548 2.268 3.24 5.688 4.393 9.144 0.97198 3.204 1.728 7.632 1.836 10.368 0.035004 2.628 0.071014 4.32-1.404 5.364-1.62 0.972-5.58 1.188-7.848 0.504-2.412-0.864-4.608-2.808-6.049-5.256-1.548-2.448-2.52-5.58-2.916-9.396-4.788 2.34-9.18 4.284-13.176 5.976-4.14 1.656-7.956 3.744-10.908 3.924-3.023 0.071991-5.651-1.26-6.912-3.168-1.403-1.98-1.836-6.228-0.75598-8.424 1.116-2.304 5.364-3.96 7.452-5.112 1.944-1.188 3.42-2.016 4.428-2.196z"/>
   </g>
  </g>
  <path id="path73" fill="#886349" d="m224.04 169.11l-128.59-0.252c-3.852-0.252-7.056-0.252-9.9 0-2.844 0.108-5.364 0.576-7.02 1.404-1.728 0.90001-2.664 1.548-3.492 3.744-0.936 2.088-2.268 4.68-2.052 8.604 0.071999 3.744 0.36 8.1 2.664 14.184 2.16 6.156 5.04 15.48 10.728 22.14 5.832 6.444 15.156 12.456 23.508 16.524 8.172 3.888 16.128 6.012 25.524 7.2 9.396 1.044 22.212 0.648 30.528-0.216 8.208-0.936 11.268-2.124 18.324-4.68 6.912-2.736 16.56-6.948 23.112-10.692 6.372-3.852 11.34-7.776 15.444-11.628 4.068-3.852 6.516-7.812 8.856-11.196 2.196-3.492 3.708-6.336 4.536-9.072 0.79199 2.736 2.304 5.58 4.536 9.072 2.232 3.384 4.68 7.344 8.856 11.196 3.96 3.852 9.071 7.776 15.479 11.628 6.48 3.744 16.021 7.956 23.076 10.692 6.948 2.556 10.044 3.744 18.324 4.68 8.208 0.864 21.023 1.26 30.527 0.216 9.36-1.188 17.28-3.312 25.561-7.2 8.244-4.068 17.64-10.08 23.472-16.524 5.616-6.66 8.496-15.984 10.729-22.14 2.231-6.084 2.52-10.44 2.664-14.184 0.10702-3.924-1.225-6.516-2.053-8.604-0.89902-2.196-1.872-2.844-3.491-3.744-1.765-0.82799-4.284-1.296-7.021-1.404-2.88-0.252-6.084-0.252-9.9 0l-128.59 0.252h-24.335zm-1.476 15.768h-135c1.368 6.48 3.78 12.096 7.236 17.28 3.42 5.112 7.524 9.54 13.284 13.284 5.76 3.6 11.844 6.444 20.772 8.388 8.892 1.944 21.564 3.78 31.788 3.024 10.116-0.90001 20.7-5.292 28.26-8.172 7.452-2.88 11.016-5.112 16.092-9.072 4.896-4.212 10.44-10.98 13.428-15.156 2.916-4.176 4.248-7.272 4.14-9.576zm27.864 0h134.96c-1.404 6.48-3.816 12.096-7.236 17.28-3.528 5.112-7.632 9.54-13.284 13.284-5.868 3.6-11.916 6.444-20.771 8.388-9 1.944-21.637 3.78-31.788 3.024-10.188-0.90001-20.809-5.292-28.261-8.172-7.56-2.88-11.124-5.112-16.092-9.072-4.968-4.212-10.548-10.98-13.428-15.156-2.953-4.176-4.321-7.272-4.105-9.576z"/>
  <g stroke-width=".036" stroke-miterlimit="10" stroke="#000">
   <path id="path75" d="m358.64 421.22c3.275-2.771 10.979-11.376 15.768-17.208 4.716-5.939 11.232-14.76 12.6-17.568 1.152-2.808-2.016-2.159-5.039 0.828-3.097 3.024-8.244 11.053-12.816 16.704-4.572 5.508-12.816 13.104-14.472 16.128-1.766 2.879 0.57398 3.708 3.959 1.116z"/>
   <path id="path77" d="m352.02 426.33c-0.828 1.188-4.429 4.644-5.652 5.111-1.26 0.25198-2.412-2.123-1.656-3.239 0.64801-1.225 4.608-3.313 5.904-3.637 1.152-0.25201 2.087 0.46899 1.404 1.765z"/>
   <path id="path79" d="m393.42 376.72c-0.43201 1.26-3.096 5.76-4.104 6.408-1.152 0.54001-2.88-1.368-2.412-2.664 0.43201-1.368 3.492-4.392 4.716-5.04 1.116-0.68399 2.088-0.071991 1.8 1.296z"/>
  </g>
 </g>
</svg>
